<svg xmlns="http://www.w3.org/2000/svg" viewBox="0 0 3000 2956.33"><g id="Layer_2" data-name="Layer 2"><g id="Layer_1-2" data-name="Layer 1"><path d="M1548.41,238.92c-678.59,0-1230.7,552.08-1230.7,1230.69S869.82,2700.3,1548.41,2700.3s1230.71-552.08,1230.71-1230.69S2227,238.92,1548.41,238.92Zm-122.5,27.3,7.23,70.84a1129.52,1129.52,0,0,0-187.89,35.49l-19-68.61A1199.68,1199.68,0,0,1,1425.91,266.22ZM997.52,393.32l32.42,63.36a1141.2,1141.2,0,0,0-127.07,76L862.5,474.09A1210.24,1210.24,0,0,1,997.52,393.32ZM1141,427.91l39.79,102.76L1169.46,598A951.1,951.1,0,0,0,967.77,717.71l-79.4-28.66-62.14-73A1120,1120,0,0,1,1141,427.91ZM567.3,1286.45l42,35.64a952,952,0,0,0,0,295.05l-43.81,37.17-110,21,1.34,7L568.58,1661l52.94,18.94a944.46,944.46,0,0,0,92.38,244.56l-39.46,69.45-85,51.34a1116.27,1116.27,0,0,1-.5-1150.41l86.53,52.26,38.45,67.66a944.82,944.82,0,0,0-92.38,244.56L566.4,1279,456.78,1258.1l-1.34,7Zm108,200.84,207.43,44.55c14.65,157.82,84.31,299.88,189.66,406.78l-12.79,19.78,19.79-12.79c106.9,105.35,249,175,406.78,189.66l44.56,207.43C1063.13,2333.33,684.68,1954.91,675.31,1487.29Zm433.52,414.43,182.37-282.14,82.14,17.64Zm292-163.87,80.29,373.84c-147.71-15.37-280.68-80.83-381.82-178.94Zm-315.57,180.86c-98.11-101.14-163.57-234.1-178.94-381.8l373.84,80.3ZM1389.7,1635.8l153.43-153.44v867.79Zm-5-171.48H667.86l714.38-153.42,153.42,153.42Zm-285.44-457.85c101.15-98.11,234.12-163.56,381.82-178.93l-80.3,373.84Zm299.16,206-17.65,82.13-264.51-264.5ZM1280.17,1322l-373.85,80.3c15.37-147.71,80.83-280.67,178.94-381.81Zm206-518.06c-157.83,14.64-299.89,84.31-406.79,189.66l-19.78-12.79,12.79,19.78c-105.35,106.89-175,248.95-189.66,406.77l-207.43,44.55c9.36-467.6,387.82-846,855.42-855.4ZM820.86,620.68l62.89,73.91,14.72,82.24A957.78,957.78,0,0,0,759.08,940.49l-81.76-.56-84.79-51.21A1127.19,1127.19,0,0,1,820.86,620.68ZM675.7,633.42l51.35,49.22A1148.62,1148.62,0,0,0,639.2,785.5l-56.87-42.77A1216.4,1216.4,0,0,1,675.7,633.42ZM455.1,952.78l64.34,30.43a1129.11,1129.11,0,0,0-60.71,157.31L390.58,1120A1200.17,1200.17,0,0,1,455.1,952.78ZM338.86,1469.61c0-36.59,1.91-72.72,5.11-108.48l70.88,6.39c-3,33.66-4.81,67.66-4.81,102.09,0,33.51,1.76,66.59,4.6,99.38l-70.89,6.22C340.72,1540.38,338.86,1505.21,338.86,1469.61ZM455,1986.13a1200.47,1200.47,0,0,1-65.17-169.64l68.2-20.41a1128.73,1128.73,0,0,0,61.32,159.64ZM676.7,2306.85a1217.4,1217.4,0,0,1-94.57-110.61L639,2153.48a1148.22,1148.22,0,0,0,89,104.09Zm-83.63-255.5,86.23-52.08,79.77-.54a957.91,957.91,0,0,0,139.4,163.67l-15,83.73-62,72.91A1126.8,1126.8,0,0,1,593.07,2051.35ZM996.18,2545.2A1208.39,1208.39,0,0,1,863.68,2466L904,2407.33a1140.28,1140.28,0,0,0,124.67,74.57ZM826.81,2323.7l63-74,77.94-28.14a951,951,0,0,0,201.7,119.7l11.46,68.18-39.53,102.08A1119.92,1119.92,0,0,1,826.81,2323.7ZM1425.57,2673a1200.14,1200.14,0,0,1-200.75-38.1l19-68.58a1130.38,1130.38,0,0,0,188.91,35.86Zm119.28-84.61A1112.65,1112.65,0,0,1,1148,2514.09L1188,2410.94l51.5-42.52a945.27,945.27,0,0,0,281.08,51.12l24.31,42.09Zm0-2110.78-24.31,42.11a945.15,945.15,0,0,0-281.07,51.12l-52.19-43.08L1147.62,425.3a1112.18,1112.18,0,0,1,397.23-74.42Zm959.43,411.13-84.8,51.22-81.75.56a958.23,958.23,0,0,0-139.39-163.67l14.73-82.24L2276,620.67A1127.19,1127.19,0,0,1,2504.28,888.71ZM1988,1037.51l-182.37,282.14L1723.48,1302Zm-292,163.86-80.29-373.83c147.71,15.37,280.66,80.82,381.81,178.93Zm315.55-180.87c98.11,101.15,163.57,234.11,178.94,381.81L1816.66,1322Zm12.86-19.89,12.78-19.78-19.77,12.78c-106.9-105.34-249-175-406.78-189.65l-44.55-207.43c467.61,9.37,846,387.79,855.4,855.4l-207.43-44.55C2199.42,1249.56,2129.75,1107.5,2024.41,1000.61Zm-317.28,302.82L1553.7,1456.86V589.06Zm5,171.47H2429l-714.36,153.43L1561.16,1474.9Zm285.42,457.86c-101.15,98.1-234.1,163.56-381.81,178.93l80.3-373.83Zm-299.14-206,17.64-82.13,264.49,264.5Zm118.28-109.6,373.83-80.3c-15.37,147.71-80.84,280.66-178.94,381.82Zm-206,518.06c157.82-14.64,299.88-84.31,406.77-189.66l19.78,12.79-12.78-19.78c105.34-106.9,175-249,189.65-406.78l207.43-44.55c-9.36,467.62-387.8,846-855.4,855.41Zm864.64-455.37,52.95-18.94L2640,1682.31l1.34-7-110-21-43.83-37.18a951.11,951.11,0,0,0,0-295l42-35.64,111.84-21.36-1.34-7L2530.41,1279l-55.13-19.73a944.1,944.1,0,0,0-92.38-244.54l38.46-67.67,86.53-52.26a1116.3,1116.3,0,0,1-.51,1150.41l-85-51.33-39.48-69.47A944,944,0,0,0,2475.28,1679.9Zm-374.94-1286a1210.32,1210.32,0,0,1,133.09,79.59l-40.32,58.65a1139.74,1139.74,0,0,0-125.28-74.93ZM2270.58,616l-62.15,73-79.38,28.66A951.38,951.38,0,0,0,1927.35,598L1916,530.65l39.78-102.74A1119.59,1119.59,0,0,1,2270.58,616ZM1670.9,266.22a1198.79,1198.79,0,0,1,201.43,38.23L1853.27,373a1130.45,1130.45,0,0,0-189.59-36ZM1552,350.88a1112.33,1112.33,0,0,1,397.21,74.41l-39.67,102.45-52.17,43.07a945.26,945.26,0,0,0-281.07-51.12L1552,477.61ZM1671.25,2673l-7.22-70.82a1130.4,1130.4,0,0,0,187.87-35.56l19,68.6A1200.66,1200.66,0,0,1,1671.25,2673ZM1552,2588.36V2461.61l24.29-42.07a945.27,945.27,0,0,0,281.08-51.12l51.49,42.5,40,103.18A1112.84,1112.84,0,0,1,1552,2588.36Zm547-42.3-32.41-63.35a1137.53,1137.53,0,0,0,127.65-76.37l40.39,58.59A1212.63,1212.63,0,0,1,2099,2546.06Zm-143.57-34.58-39.52-102.08,11.46-68.18a951,951,0,0,0,201.7-119.71l77.93,28.14,63,74A1119.53,1119.53,0,0,1,1955.41,2511.48Zm320-192.43-62-72.91-15-83.74a957.91,957.91,0,0,0,139.4-163.67l79.76.54,86.23,52.08A1127,1127,0,0,1,2275.37,2319.05Zm145.51-13-51.36-49.23a1147,1147,0,0,0,88.32-103.38l56.87,42.78A1219.09,1219.09,0,0,1,2420.88,2306.06Zm220.71-319.3-64.36-30.44a1130.18,1130.18,0,0,0,60.94-158l68.17,20.58A1202.67,1202.67,0,0,1,2641.59,1986.76ZM2758,1469.61c0,36.7-1.92,73-5.14,108.83l-70.91-6.39c3-33.78,4.84-67.89,4.84-102.44,0-33.62-1.76-66.83-4.63-99.73l70.92-6.22C2756.1,1398.61,2758,1433.88,2758,1469.61ZM2641.72,952.77a1200.92,1200.92,0,0,1,65.41,170.29l-68.22,20.42a1129.15,1129.15,0,0,0-61.55-160.29Zm-126.8-209.52L2458,786a1145,1145,0,0,0-89.44-104.61l51.31-49.3A1221.87,1221.87,0,0,1,2514.92,743.25ZM1548.41,177.79c-712.32,0-1291.82,579.51-1291.82,1291.82s579.5,1291.83,1291.82,1291.83,1291.82-579.52,1291.82-1291.83S2260.74,177.79,1548.41,177.79Zm0,2556c-697.08,0-1264.19-567.11-1264.19-1264.2S851.33,205.42,1548.41,205.42s1264.2,567.11,1264.2,1264.19S2245.5,2733.81,1548.41,2733.81ZM1480.84,8.16c-.6-.45-.89-1.69-.89-3.76q0-2.64,1.44-3.51a8.87,8.87,0,0,1,4.52-.89q13.66,0,21.6,1.87a35,35,0,0,1,14,6.73q6.07,4.85,13.35,14.77s60.4,79.36,61.07,79.36l-.45-75.62a56.73,56.73,0,0,0-.89-9.15,9.25,9.25,0,0,0-3.64-5.51c-2-1.54-5.09-2.31-9.35-2.31h-1.34a5.14,5.14,0,0,1-3.18-.78c-.67-.51-1.08-1.79-1.22-3.85a5.43,5.43,0,0,1,1.1-3.42,3.48,3.48,0,0,1,2.87-1.43q14.1.66,21.17.66c2.78,0,8.16-.15,16.08-.43l4.64-.23a3.35,3.35,0,0,1,3,1.43,5.83,5.83,0,0,1,1,3.42c-.15,2.2-.6,3.53-1.32,4a9.12,9.12,0,0,1-4.21.67c-4.26,0-7.37.77-9.35,2.31a9.25,9.25,0,0,0-3.64,5.51,57,57,0,0,0-.88,9.15l-.46,111.11c-.14,1.92-2,2.86-5.5,2.86a7.52,7.52,0,0,1-6.39-2.86s-83.12-111.11-83.76-111.11l.43,87.52a59.37,59.37,0,0,0,.88,9.15,9.2,9.2,0,0,0,3.64,5.51c2,1.54,5.09,2.32,9.37,2.32h1.32a5.23,5.23,0,0,1,3.2.77c.65.51,1.06,1.8,1.2,3.86a5.92,5.92,0,0,1-1,3.41,3.4,3.4,0,0,1-3,1.43q-14.1-.66-21.38-.66-4.38,0-15.43.45l-5.07.21a3.39,3.39,0,0,1-3-1.43,5.78,5.78,0,0,1-1-3.41c.14-2.21.57-3.53,1.31-4a9,9,0,0,1,4.19-.66c4.26,0,7.39-.78,9.38-2.32a9.32,9.32,0,0,0,3.63-5.51,63.16,63.16,0,0,0,.89-9.15l.43-87.52q0-6.62-1.44-10a9.35,9.35,0,0,0-4.52-4.95,35.4,35.4,0,0,0-8.82-2.66C1483,9,1481.41,8.6,1480.84,8.16Zm115.42,2887.76c3.73,5.74,5.62,12.87,5.62,21.39a31.64,31.64,0,0,1-7,20,46.22,46.22,0,0,1-18.73,14,65.16,65.16,0,0,1-25.91,5.07q-23.15,0-35.38-8t-12.22-23.7a17.42,17.42,0,0,1,5.38-13.11q5.42-5.19,14-5.18c3.37.14,5.93,1,7.7,2.54s2.66,3,2.66,4.29a8.53,8.53,0,0,1-2.21,1.54,12.71,12.71,0,0,0-4,4,12.87,12.87,0,0,0-1.77,7.28q0,10.37,6.3,16t19.49,5.63a34.22,34.22,0,0,0,15.88-3.53,26.17,26.17,0,0,0,10.48-9.37,22.78,22.78,0,0,0,3.64-12.23,21.43,21.43,0,0,0-4.52-13.67,39.06,39.06,0,0,0-11.15-9.58,191.2,191.2,0,0,0-18.06-8.94,217.25,217.25,0,0,1-21.39-10.8,45.32,45.32,0,0,1-13.89-12.89q-5.74-8.05-5.74-19.95,0-19.2,13.13-28.67t34.49-9.47q16.75,0,29.21,7.06t12.46,20.71a17.34,17.34,0,0,1-5.41,13.12q-5.42,5.19-14,5.18c-3.4-.14-6-1-7.73-2.54s-2.63-3-2.63-4.29c0-.14,1-.67,3-1.54a15.49,15.49,0,0,0,5.29-4,10.66,10.66,0,0,0,2.32-7.28,14.94,14.94,0,0,0-6.3-12.78c-4.18-3.09-9.49-4.64-16-4.64q-13.45,0-20.38,6.29a20.1,20.1,0,0,0-7,15.54,19.89,19.89,0,0,0,4.21,12.9c2.78,3.45,7.28,6.87,13.45,10.25q7.5,4,16.31,7.93a182.46,182.46,0,0,1,22.37,11.69A46.33,46.33,0,0,1,1596.26,2895.92ZM206.89,1395.83a5.77,5.77,0,0,1,1,3.42c-.15,2-.5,3.33-1.1,3.85a4.71,4.71,0,0,1-3.09.78q-9.69,0-15.09,3.19t-7.82,11.79l-36.17,117.5H134.24L98.53,1431.2,70.09,1536.36H59.73l-36.6-114.63c-2.49-6.32-4.93-10.73-7.27-13.23s-5.82-4.18-10.36-5.07c-.57-.14-1.46-.33-2.63-.55a3.1,3.1,0,0,1-2.32-1.32,6.77,6.77,0,0,1-.55-3.2c0-1.77.48-2.94,1.44-3.53A8.92,8.92,0,0,1,6,1394c11,0,19.39,1.7,25.11,5.07s10.29,9.41,13.68,18.08c0,0,25.12,80.69,26,80.69l26.88-102.74h11.48s35.93,102.74,36.6,102.74l24.9-83.11a23.21,23.21,0,0,0,.89-5.73c0-2.06-.74-3.42-2.2-4.08s-4.28-1-8.4-1H159.6a4.81,4.81,0,0,1-3.09-.78c-.6-.52-1-1.8-1.1-3.85a6,6,0,0,1,1-3.42,3.19,3.19,0,0,1,2.78-1.44q14.31.66,24,.66,4.2,0,16.1-.43l4.64-.23A3.38,3.38,0,0,1,206.89,1395.83ZM3000,1501.75l-4.43,27.78c-.43,1.91-1.1,3.16-2,3.74a8,8,0,0,1-4.4.89h-72.74q-11.91,0-26.45.66a3.15,3.15,0,0,1-2.76-1.44,5.75,5.75,0,0,1-1-3.41c.14-2.21.6-3.53,1.34-4a9,9,0,0,1,4.19-.66q6.38,0,9.47-2.32a9.59,9.59,0,0,0,3.85-5.73,48.9,48.9,0,0,0,1-8.93v-87.51a49.35,49.35,0,0,0-1-8.94,9.67,9.67,0,0,0-3.85-5.73c-2.06-1.54-5.22-2.3-9.47-2.3h-1.34a4.81,4.81,0,0,1-3.09-.78c-.57-.52-1-1.8-1.1-3.85a5.78,5.78,0,0,1,1-3.42,3.15,3.15,0,0,1,2.76-1.44q14.52.66,26.24.66h69.2c3.82,0,5.74,1.77,5.74,5.3l.67,30.85a3.66,3.66,0,0,1-2,3.21,7.61,7.61,0,0,1-4,1.21,10.46,10.46,0,0,1-4.64-1,3.68,3.68,0,0,1-2.2-3,92.57,92.57,0,0,0-3.85-16.42,16.76,16.76,0,0,0-6.17-8.38c-2.73-1.84-6.58-2.83-11.58-3h-29.54v56h39.9a3.41,3.41,0,0,1,2.44,1.66,6.57,6.57,0,0,1,.86,3.41,5.54,5.54,0,0,1-.86,3.09,2.81,2.81,0,0,1-2.44,1.33h-39.9V1511a56.43,56.43,0,0,0,1.1,7.38,8.64,8.64,0,0,0,4,5c2.2,1.47,5.67,2.13,10.36,2h20.28c5.15-.14,9-1,11.7-2.53a16,16,0,0,0,6.27-7.17,119.91,119.91,0,0,0,5.62-15.87q1.55-4,7.51-3.08a8.7,8.7,0,0,1,3.85,1.75A3.56,3.56,0,0,1,3000,1501.75ZM2086.72,884a2.77,2.77,0,0,1,.45,1.61c-.07,1-.26,1.68-.62,1.89a4.27,4.27,0,0,1-2,.31,7.25,7.25,0,0,0-4.45,1.1,4.5,4.5,0,0,0-1.73,2.61,30.94,30.94,0,0,0-.4,4.33l-.22,52.66c-.07.9-.93,1.35-2.6,1.35a3.62,3.62,0,0,1-3-1.35s-39.38-52.66-39.69-52.66l.19,41.48a27.52,27.52,0,0,0,.44,4.34,4.43,4.43,0,0,0,1.72,2.61c.93.73,2.41,1.1,5.07,1.1a2.52,2.52,0,0,1,1.51.36,2.7,2.7,0,0,1,.57,1.83,2.75,2.75,0,0,1-.45,1.61,1.63,1.63,0,0,1-1.42.68c-4.47-.2-7.84-.31-10.14-.31q-2.09,0-7.32.2l-2.39.11a1.59,1.59,0,0,1-1.41-.68,2.76,2.76,0,0,1-.48-1.61c.07-1,.29-1.68.62-1.88a4.24,4.24,0,0,1,2-.31,7.26,7.26,0,0,0,4.45-1.1,4.53,4.53,0,0,0,1.72-2.61,25.87,25.87,0,0,0,.41-4.34l.21-41.48a12.73,12.73,0,0,0-.67-4.75,4.41,4.41,0,0,0-2.15-2.34,16.87,16.87,0,0,0-4.16-1.26,6.21,6.21,0,0,1-2.2-.63c-.29-.21-.43-.8-.43-1.77a1.81,1.81,0,0,1,.69-1.68,4.3,4.3,0,0,1,2.13-.41,46.58,46.58,0,0,1,10.24.88,16.78,16.78,0,0,1,6.65,3.19,37.52,37.52,0,0,1,6.31,7s28.61,37.6,28.94,37.6l-.21-35.83a27.45,27.45,0,0,0-.43-4.33,4.3,4.3,0,0,0-1.72-2.61c-.94-.74-2.42-1.1-5-1.1a2.44,2.44,0,0,1-1.53-.37c-.31-.24-.5-.85-.58-1.83a2.5,2.5,0,0,1,.53-1.61,1.62,1.62,0,0,1,1.36-.68c4.45.21,7.8.32,10,.32,1.31,0,3.87-.07,7.63-.22l2.2-.1A1.62,1.62,0,0,1,2086.72,884Zm61.74,48.63a1.66,1.66,0,0,1,.67,1.56l-2.08,13.17a2.89,2.89,0,0,1-.94,1.77,4,4,0,0,1-2.1.42h-34.47q-5.64,0-12.54.31a1.52,1.52,0,0,1-1.31-.68,2.75,2.75,0,0,1-.46-1.61c.08-1,.27-1.68.63-1.88a4.14,4.14,0,0,1,2-.31,7.55,7.55,0,0,0,4.5-1.1,4.56,4.56,0,0,0,1.82-2.72,25.47,25.47,0,0,0,.48-4.23V895.83a25.46,25.46,0,0,0-.48-4.22,4.56,4.56,0,0,0-1.82-2.72c-1-.74-2.49-1.1-5.12-1.1a2.17,2.17,0,0,1-1.46-.37c-.29-.24-.45-.85-.53-1.83a2.77,2.77,0,0,1,.46-1.61,1.52,1.52,0,0,1,1.31-.68q6.9.32,12.44.32h32.8c1.82,0,2.72.82,2.72,2.5l.32,14.63a1.72,1.72,0,0,1-1,1.51,3.47,3.47,0,0,1-1.87.58,4.79,4.79,0,0,1-2.2-.48,1.75,1.75,0,0,1-1.05-1.41,42.4,42.4,0,0,0-1.82-7.77,7.94,7.94,0,0,0-2.92-4,10.37,10.37,0,0,0-5.5-1.41h-14v26.53h18.92a1.62,1.62,0,0,1,1.15.79,3.18,3.18,0,0,1,.4,1.61,2.75,2.75,0,0,1-.4,1.48,1.35,1.35,0,0,1-1.15.62H2115v19.74a24.38,24.38,0,0,0,.53,3.5,4,4,0,0,0,1.88,2.35,8.54,8.54,0,0,0,4.91,1h9.61a11.81,11.81,0,0,0,5.53-1.21,7.54,7.54,0,0,0,3-3.4,61.58,61.58,0,0,0,2.66-7.52c.47-1.24,1.67-1.73,3.54-1.46A4.2,4.2,0,0,1,2148.46,932.61ZM936.58,886.85c-.29-.21-.43-.8-.43-1.77a1.83,1.83,0,0,1,.69-1.68A4.33,4.33,0,0,1,939,883a46.58,46.58,0,0,1,10.24.88,16.78,16.78,0,0,1,6.65,3.19,37.18,37.18,0,0,1,6.31,7s28.61,37.6,29,37.6l-.22-35.83a26.3,26.3,0,0,0-.43-4.33,4.25,4.25,0,0,0-1.72-2.61c-.93-.74-2.42-1.1-5-1.1a2.44,2.44,0,0,1-1.53-.37q-.46-.36-.57-1.83a2.49,2.49,0,0,1,.52-1.61,1.62,1.62,0,0,1,1.37-.68q6.68.32,10,.32c1.31,0,3.87-.07,7.63-.22l2.2-.1a1.61,1.61,0,0,1,1.41.68,2.77,2.77,0,0,1,.46,1.61c-.08,1-.27,1.68-.63,1.89a4.24,4.24,0,0,1-2,.31,7.27,7.27,0,0,0-4.45,1.1,4.48,4.48,0,0,0-1.72,2.61,30.66,30.66,0,0,0-.41,4.33l-.21,52.66c-.08.9-.94,1.35-2.61,1.35a3.62,3.62,0,0,1-3-1.35s-39.37-52.66-39.68-52.66l.19,41.48a26.57,26.57,0,0,0,.43,4.34,4.48,4.48,0,0,0,1.72,2.61c.93.73,2.42,1.1,5.07,1.1a2.48,2.48,0,0,1,1.51.36,2.7,2.7,0,0,1,.57,1.83,2.75,2.75,0,0,1-.45,1.61,1.62,1.62,0,0,1-1.41.68c-4.48-.2-7.85-.31-10.15-.31q-2.07,0-7.31.2l-2.4.11a1.59,1.59,0,0,1-1.41-.68,2.76,2.76,0,0,1-.48-1.61c.08-1,.29-1.68.63-1.88a4.16,4.16,0,0,1,2-.31,7.24,7.24,0,0,0,4.45-1.1,4.48,4.48,0,0,0,1.72-2.61,24.84,24.84,0,0,0,.41-4.34l.21-41.48a12.73,12.73,0,0,0-.67-4.75,4.41,4.41,0,0,0-2.15-2.34,16.87,16.87,0,0,0-4.16-1.26A6.21,6.21,0,0,1,936.58,886.85Zm71.52-.16a3.27,3.27,0,0,1-.26-1.5,1.81,1.81,0,0,1,.67-1.68,4.32,4.32,0,0,1,2.15-.42c5.21,0,9.19.8,11.91,2.41s4.86,4.45,6.46,8.56c0,0,11.91,38.24,12.34,38.24l12.75-48.68h5.43s17,48.68,17.35,48.68l11.79-39.39a10.31,10.31,0,0,0,.43-2.71,1.91,1.91,0,0,0-1-1.94c-.7-.31-2-.47-4.6-.47a2.19,2.19,0,0,1-1.46-.37,2.87,2.87,0,0,1-.52-1.83A2.58,2.58,0,0,1,1082,884a1.46,1.46,0,0,1,1.29-.68c4.52.21,8.32.32,11.38.32,1.32,0,3.88-.07,7.64-.22l2.2-.1a1.62,1.62,0,0,1,1.41.68,2.77,2.77,0,0,1,.45,1.61,2.87,2.87,0,0,1-.52,1.83,2.19,2.19,0,0,1-1.46.37,14.09,14.09,0,0,0-7.16,1.52c-1.69,1-2.94,2.87-3.7,5.59l-17.13,55.67h-4.9l-16.94-49.82-13.47,49.82h-4.92l-17.35-54.32a20.32,20.32,0,0,0-3.44-6.27,8.83,8.83,0,0,0-4.91-2.4c-.28-.06-.69-.16-1.24-.25A1.49,1.49,0,0,1,1008.1,886.69ZM2074,2033.1a18.24,18.24,0,0,1,2.65,10.14,15.08,15.08,0,0,1-3.28,9.45,22,22,0,0,1-8.9,6.64,30.59,30.59,0,0,1-12.27,2.4c-7.29,0-12.89-1.28-16.76-3.81s-5.79-6.29-5.79-11.23a8.28,8.28,0,0,1,2.56-6.22,9.14,9.14,0,0,1,6.62-2.45,5.83,5.83,0,0,1,3.66,1.19,3,3,0,0,1,1.27,2,4.11,4.11,0,0,1-1,.73,5.73,5.73,0,0,0-2.73,5.32,9.67,9.67,0,0,0,3,7.58q3,2.66,9.23,2.66a16.33,16.33,0,0,0,7.54-1.66,12.48,12.48,0,0,0,4.95-4.45,10.78,10.78,0,0,0,1.72-5.79,10.24,10.24,0,0,0-2.13-6.48,18.47,18.47,0,0,0-5.28-4.55,88.07,88.07,0,0,0-8.57-4.23,101.94,101.94,0,0,1-10.14-5.12,21.84,21.84,0,0,1-6.58-6.11,16,16,0,0,1-2.7-9.45c0-6.07,2.06-10.59,6.22-13.59s9.59-4.48,16.34-4.48a27.81,27.81,0,0,1,13.85,3.33c3.92,2.24,5.91,5.5,5.91,9.82a8.32,8.32,0,0,1-2.56,6.22,9.24,9.24,0,0,1-6.65,2.45,5.73,5.73,0,0,1-3.66-1.19,2.93,2.93,0,0,1-1.25-2,5.46,5.46,0,0,1,1.41-.74,7.15,7.15,0,0,0,2.52-1.88,5.14,5.14,0,0,0,1.1-3.44,7.15,7.15,0,0,0-3-6.06,12.46,12.46,0,0,0-7.59-2.19c-4.23,0-7.46,1-9.66,3a9.55,9.55,0,0,0-3.28,7.36,9.41,9.41,0,0,0,2,6.11,21.06,21.06,0,0,0,6.36,4.86c2.37,1.26,4.95,2.5,7.73,3.76a86.09,86.09,0,0,1,10.62,5.53A22.19,22.19,0,0,1,2074,2033.1Zm63.72,9.62a1.64,1.64,0,0,1,.67,1.56l-2.08,13.17a2.94,2.94,0,0,1-.93,1.77,4,4,0,0,1-2.11.42h-34.47c-3.75,0-7.94.11-12.53.31a1.57,1.57,0,0,1-1.32-.68,2.75,2.75,0,0,1-.45-1.61c.07-1,.26-1.68.62-1.88a4.14,4.14,0,0,1,2-.31,7.55,7.55,0,0,0,4.5-1.1,4.56,4.56,0,0,0,1.82-2.72,24.44,24.44,0,0,0,.48-4.23v-41.48a24.43,24.43,0,0,0-.48-4.22,4.56,4.56,0,0,0-1.82-2.72c-1-.74-2.49-1.1-5.12-1.1a2.19,2.19,0,0,1-1.46-.37,2.87,2.87,0,0,1-.52-1.83,2.77,2.77,0,0,1,.45-1.61,1.55,1.55,0,0,1,1.32-.68q6.89.31,12.44.32h32.79c1.82,0,2.73.82,2.73,2.5l.31,14.63a1.7,1.7,0,0,1-1,1.51,3.46,3.46,0,0,1-1.86.58,4.83,4.83,0,0,1-2.21-.48,1.75,1.75,0,0,1-1.05-1.41,42.55,42.55,0,0,0-1.82-7.78,8,8,0,0,0-2.91-4,10.44,10.44,0,0,0-5.51-1.41h-14v26.53h18.92a1.59,1.59,0,0,1,1.15.79,3.18,3.18,0,0,1,.41,1.61,2.76,2.76,0,0,1-.41,1.48,1.35,1.35,0,0,1-1.15.62h-18.92v19.74a24.61,24.61,0,0,0,.53,3.5,4,4,0,0,0,1.89,2.35,8.53,8.53,0,0,0,4.9.95h9.62a11.76,11.76,0,0,0,5.52-1.21,7.54,7.54,0,0,0,3-3.4,61.58,61.58,0,0,0,2.66-7.52c.48-1.24,1.67-1.74,3.54-1.46A4.2,4.2,0,0,1,2137.67,2042.72Zm-1178.58,1.15a6.18,6.18,0,0,0-.84,3.44,9.67,9.67,0,0,0,3,7.58q3,2.66,9.23,2.66a16.33,16.33,0,0,0,7.54-1.66,12.48,12.48,0,0,0,5-4.45,10.78,10.78,0,0,0,1.72-5.79,10.18,10.18,0,0,0-2.13-6.48,18.47,18.47,0,0,0-5.28-4.55,88.07,88.07,0,0,0-8.57-4.23,103.06,103.06,0,0,1-10.14-5.12,21.84,21.84,0,0,1-6.58-6.11,16,16,0,0,1-2.7-9.45c0-6.07,2.06-10.59,6.22-13.59s9.59-4.48,16.34-4.48a27.81,27.81,0,0,1,13.85,3.33c3.92,2.24,5.91,5.5,5.91,9.82A8.32,8.32,0,0,1,989,2011a9.24,9.24,0,0,1-6.65,2.45,5.73,5.73,0,0,1-3.66-1.19,2.93,2.93,0,0,1-1.25-2,5.46,5.46,0,0,1,1.41-.74,7.15,7.15,0,0,0,2.52-1.88,5.14,5.14,0,0,0,1.1-3.44,7.15,7.15,0,0,0-3-6.06,12.46,12.46,0,0,0-7.59-2.19c-4.23,0-7.46,1-9.66,3a9.55,9.55,0,0,0-3.28,7.36,9.41,9.41,0,0,0,2,6.11,21.06,21.06,0,0,0,6.36,4.86c2.37,1.26,4.95,2.5,7.73,3.76a86.09,86.09,0,0,1,10.62,5.53,22.19,22.19,0,0,1,6.58,6.58,18.24,18.24,0,0,1,2.65,10.14,15.08,15.08,0,0,1-3.28,9.45,22,22,0,0,1-8.89,6.64,30.68,30.68,0,0,1-12.28,2.4c-7.29,0-12.89-1.28-16.76-3.81s-5.79-6.29-5.79-11.23a8.28,8.28,0,0,1,2.56-6.22,9.14,9.14,0,0,1,6.62-2.45,5.79,5.79,0,0,1,3.66,1.19,3,3,0,0,1,1.27,2,4.11,4.11,0,0,1-1,.73A6.14,6.14,0,0,0,959.09,2043.87Zm38-47.07a3.41,3.41,0,0,1-.26-1.5,1.83,1.83,0,0,1,.67-1.68,4.32,4.32,0,0,1,2.15-.42q7.83,0,11.92,2.41t6.45,8.56s11.92,38.24,12.35,38.24l12.75-48.68h5.43s17,48.68,17.34,48.68l11.79-39.39a10.31,10.31,0,0,0,.43-2.71,1.91,1.91,0,0,0-1-1.94c-.69-.31-2-.47-4.59-.47a2.16,2.16,0,0,1-1.46-.37,2.8,2.8,0,0,1-.53-1.83,2.58,2.58,0,0,1,.48-1.61,1.46,1.46,0,0,1,1.29-.68c4.52.21,8.33.32,11.39.32,1.31,0,3.87-.07,7.63-.22l2.2-.1a1.61,1.61,0,0,1,1.41.68,2.77,2.77,0,0,1,.45,1.61c-.07,1-.23,1.59-.52,1.83a2.17,2.17,0,0,1-1.46.37,14,14,0,0,0-7.15,1.52c-1.7,1-3,2.87-3.71,5.59l-17.13,55.67h-4.9l-16.94-49.82L1030,2060.68h-4.93l-17.34-54.32a20.3,20.3,0,0,0-3.45-6.27,8.83,8.83,0,0,0-4.9-2.4c-.29-.06-.7-.16-1.25-.25A1.49,1.49,0,0,1,997.07,1996.8Z" fill="#0A3556"/></g></g></svg>