<svg xmlns="http://www.w3.org/2000/svg" viewBox="0 0 64 64" width="64" height="64">
  <defs>
    <!-- Gold foil gradient -->
    <linearGradient id="goldFoil" x1="0%" y1="0%" x2="100%" y2="100%">
      <stop offset="0%" stop-color="#FFD700"/>
      <stop offset="20%" stop-color="#FFE033"/>
      <stop offset="40%" stop-color="#FFC700"/>
      <stop offset="60%" stop-color="#FFB300"/>
      <stop offset="80%" stop-color="#FFD633"/>
      <stop offset="100%" stop-color="#FFD700"/>
    </linearGradient>

    <!-- Foil texture pattern -->
    <pattern id="foilTexture" patternUnits="userSpaceOnUse" width="4" height="4">
      <path d="M0,0 L4,4 M4,0 L0,4" stroke="rgba(255,255,255,0.15)" stroke-width="0.5"/>
    </pattern>

    <!-- Shine overlay for depth -->
    <radialGradient id="foilShine" cx="30%" cy="30%" r="50%">
      <stop offset="0%" stop-color="white" stop-opacity="0.4"/>
      <stop offset="100%" stop-color="white" stop-opacity="0"/>
    </radialGradient>
  </defs>

  <!-- Star base with gold foil -->
  <path d="M32 2l8 16 18 2-13 12 4 18-16-8-16 8 4-18-13-12 18-2z" fill="url(#goldFoil)"/>

  <!-- Foil texture overlay -->
  <path d="M32 2l8 16 18 2-13 12 4 18-16-8-16 8 4-18-13-12 18-2z" fill="url(#foilTexture)"/>

  <!-- Shine overlay -->
  <circle cx="32" cy="16" r="12" fill="url(#foilShine)"/>
</svg>
